<?xml version="1.0" standalone="no"?><!DOCTYPE svg PUBLIC "-//W3C//DTD SVG 1.1//EN" "http://www.w3.org/Graphics/SVG/1.1/DTD/svg11.dtd"><svg t="1564452182759" class="icon" viewBox="0 0 1024 1024" version="1.1" xmlns="http://www.w3.org/2000/svg" p-id="6902" xmlns:xlink="http://www.w3.org/1999/xlink" width="16" height="16"><defs><style type="text/css"></style></defs><path d="M619.72992 232.00256H192.8448c-13.50144 0-22.49216 8.99072-22.49216 22.49728s8.99072 22.49728 22.49216 22.49728h426.92608c13.50656 0 22.49728-8.99072 22.49728-22.49728s-13.50656-22.49728-22.53824-22.49728z m-202.48576 422.00064c0-13.50656-8.99072-22.49728-22.49728-22.49728H192.8448c-13.50144 0-22.49216 13.50656-22.49216 22.49728s8.99072 22.49728 22.49216 22.49728h201.86624c8.9856 0 22.49216-8.99072 22.53312-22.49728zM192.8448 434.57536c-13.50656 0-22.49728 8.99072-22.49728 22.49728s8.99072 22.49728 22.49216 22.49728h73.52832c13.50656 0 22.49728-8.99072 22.49728-22.49728s-13.50656-22.49728-22.49728-22.49728h-73.5232z m626.38592 253.52704h-0.08192c-89.37472 0.03584-161.85344-72.39168-161.88928-161.7664s72.39168-161.85344 161.7664-161.88928c89.37472-0.06144 161.87392 72.35072 161.93536 161.72544 0.0512 89.37472-72.35072 161.87392-161.73056 161.93024z m0-281.4464h-0.08192c-66.06848-0.04608-119.66976 53.4784-119.72096 119.55712-0.04608 66.0736 53.4784 119.67488 119.55712 119.72096 66.0736 0.06656 119.69536-53.44256 119.76192-119.51616 0.06144-66.0736-53.44256-119.69536-119.51616-119.76192z m-293.90848 168.2688l-27.83744 27.84256a1.82784 1.82784 0 0 1-2.57024 0L373.248 481.09568a21.49376 21.49376 0 1 1 30.40256-30.40256l121.66656 121.66656a1.80736 1.80736 0 0 1 0.00512 2.56512z" fill="#84E482" p-id="6903"></path><path d="M758.46144 937.02656c-48.7936 0-90.26048 0-104.80128-0.12288a24.04864 24.04864 0 0 1-14.04416-5.50912c-16.6144-15.0784-22.82496-25.89184-23.90528-27.91936l-1.0752-2.0736a18.56512 18.56512 0 0 1-0.29184-14.78656l0.99328-2.11456c11.76576-24.85248 20.62848-59.648 14.28992-69.84192-11.31008-18.26816-52.89984-80.53248-77.71136-117.68832l-9.73824-14.62272a4759.27552 4759.27552 0 0 0-9.3184-14.04416l-1.03424-1.6128a40.4224 40.4224 0 0 1 61.55776-51.4048l122.98752 91.8784a170.2912 170.2912 0 0 0 100.7872 32.72704h0.3328c37.5296 0 73.4464-5.01248 103.89504-27.84256l0.66048-0.53248 1.37216-0.99328a42.9568 42.9568 0 0 1 29.98784-6.6304l-0.04096-0.04096c21.08416 2.816 32.80896 21.33504 34.9184 25.02144l1.23904 2.4832c1.408 3.31264 19.68128 75.68384 19.68128 162.432a24.61184 24.61184 0 0 1-4.8896 13.50656c-10.14784 12.18048-19.75808 22.49728-20.16768 22.94784l-0.57856 0.66048a21.7088 21.7088 0 0 1-13.92128 6.05184h-0.8704l-210.31424 0.07168z m-96.18432-42.2144c55.96672 0.16384 250.33728 0 297.0624 0 2.54464-2.84672 5.05344-5.71392 7.54176-8.61696-1.65376-68.93568-11.26912-125.68576-15.69792-136.95488a14.58176 14.58176 0 0 0-6.58432-5.0944c2.816 1.536 2.688 1.536 2.56512 1.536h-0.41472l-0.16384 0.12288c-37.78048 28.288-82.47296 36.20352-129.16736 36.20352h-0.4096a212.46976 212.46976 0 0 1-126.14144-41.22112l-6.2976-4.72064-104.64256-78.25408c-3.64544-2.72896-4.5568-1.85856-2.02752 1.95072l9.1136 13.6704c24.98048 37.40672 66.77504 99.99872 78.49984 118.93248 17.6896 28.62592 2.65216 75.31008-6.8352 98.46784 1.02912 1.2032 2.18624 2.56512 3.59936 3.97824zM861.19936 305.8688V168.75008c0-98.22208-98.22208-98.22208-98.22208-98.22208H124.45184s-98.304 0-98.304 98.22208v22.53312h0.20992c-0.04096 0.70656-0.41472 1.32608-0.41472 2.02752a24.8576 24.8576 0 0 0 49.71008 0c0-0.74752-0.36864-1.36704-0.41472-2.10944h0.08192v-22.45632c0-49.09056 49.13152-49.09056 49.13152-49.09056H762.9824s49.20832 0 49.20832 49.09056v139.22816c0 0.16384-0.11776 0.32768-0.11776 0.5376 0 0.2048 0.08192 0.32768 0.11776 0.5376v3.18976h0.62464c1.86368 11.88352 11.67872 21.16608 24.11008 21.16608 12.42624 0 22.2464-9.28256 24.11008-21.16608h0.2048v-1.03936c0.08192-0.91136 0.5376-1.69472 0.5376-2.65216 0-0.93696-0.49664-1.7664-0.57856-2.67776z m-304.84992 487.12192v-0.37376H124.36992s-49.13152 0-49.13152-49.13152V291.328c0.04096-0.57856 0.3328-1.12128 0.3328-1.69984s-0.25088-1.16224-0.29184-1.7408v-0.08704a24.7296 24.7296 0 0 0-24.5248-23.07072 24.64768 24.64768 0 0 0-24.48384 23.02976h-0.16384v0.74752c0 0.37376-0.20992 0.70656-0.20992 1.08032 0 0.36864 0.20992 0.70144 0.20992 1.0752v452.78208c0 98.21696 98.21696 98.21696 98.21696 98.21696h427.05408c1.12128 0.16896 2.10944 0.6656 3.27168 0.6656a24.68864 24.68864 0 1 0 1.69984-49.33632z" fill="#84E482" p-id="6904"></path></svg>